<svg xmlns="http://www.w3.org/2000/svg" width="128" height="128" viewBox="0 0 128 128"><svg xmlns="http://www.w3.org/2000/svg" xmlns:xlink="http://www.w3.org/1999/xlink" width="128" height="91" data-background-color="#ffffff" transform="translate(12.334 27.175)scale(.80469)" viewBox="0 0 155 111"><svg width="154.5" height="110.357" transform="translate(.25 .321)" viewBox="0 0 154.5 110.357"><svg width="154.5" height="110.357" viewBox="0 0 154.5 110.357"><svg width="154.5" height="110.357" viewBox="0 0 154.5 110.357"><svg width="154.5" height="110.357" viewBox="0 0 154.5 110.357"><svg width="154.5" height="110.357" viewBox="0 0 154.5 110.357"><svg width="154.5" height="110.357" data-palette-color="#000000" viewBox="4 -26 36.41 26"><path fill="#fff" d="M35.6-21.19H24.61V0H19.8v-21.19H8.79V0H4v-26h4.79v4.59q.05-.95.44-1.8.39-.84 1.04-1.46.64-.62 1.5-.98.85-.35 1.83-.35h6.2q.95 0 1.81.35.85.36 1.51.98t1.06 1.46q.4.85.43 1.8.05-.95.43-1.8.38-.84 1.02-1.46.65-.62 1.5-.98.86-.35 1.83-.35h6.21q1 0 1.88.38.87.38 1.52 1.02.65.65 1.03 1.53t.38 1.88V0H35.6z" class="wordmark-text-0" data-fill-palette-color="primary"/></svg></svg></svg></svg></svg></svg></svg></svg>