<svg xmlns="http://www.w3.org/2000/svg" width="2000" height="429" viewBox="0 0 2000 429"><svg xmlns="http://www.w3.org/2000/svg" xmlns:xlink="http://www.w3.org/1999/xlink" width="2000" height="429" data-background-color="#ffffff" transform="translate(-1.212 -.423)" viewBox="0 0 396 85"><svg width="395.52" height="84.832" transform="translate(.24 .084)" viewBox="0 0 395.52 84.832"><svg width="395.52" height="84.832" viewBox="0 0 395.52 84.832"><svg width="395.52" height="84.832" viewBox="0 0 395.52 84.832"><svg width="395.52" height="84.832" viewBox="0 0 395.52 84.832"><svg width="395.52" height="84.832" viewBox="0 0 395.52 84.832"><svg width="395.52" height="84.832" data-palette-color="#000000" viewBox="4 -36.01 167.89 36.01"><path d="M35.6-21.19H24.61V0H19.8v-21.19H8.79V0H4v-26h4.79v4.59q.05-.95.44-1.8.39-.84 1.04-1.46.64-.62 1.5-.98.85-.35 1.83-.35h6.2q.95 0 1.81.35.85.36 1.51.98t1.06 1.46q.4.85.43 1.8.05-.95.43-1.8.38-.84 1.02-1.46.65-.62 1.5-.98.86-.35 1.83-.35h6.21q1 0 1.88.38.87.38 1.52 1.02.65.65 1.03 1.53t.38 1.88V0H35.6zm35.3 0v16.38q0 1-.38 1.88T69.49-1.4q-.64.64-1.51 1.02T66.11 0H53.2q-.98 0-1.86-.38T49.81-1.4q-.64-.65-1.02-1.53t-.38-1.88v-16.38q0-1 .38-1.88t1.02-1.53q.65-.64 1.53-1.02T53.2-26h12.91q1 0 1.87.38t1.51 1.02q.65.65 1.03 1.53t.38 1.88m-4.79 0H53.2v16.38h12.91zm11.28 0V-26h6.35v-8.01h4.8V-26h8.55v4.81h-8.55v16.38h8.55V0h-8.55q-.97 0-1.85-.38T85.15-1.4q-.66-.65-1.04-1.53-.37-.88-.37-1.88v-16.38zM105.34-26h4.81V0h-4.81zm-.24-5.01v-5h5.29v5zm35.78 9.82v16.38q0 1-.37 1.88-.38.88-1.03 1.53-.65.64-1.51 1.02-.87.38-1.87.38h-12.92q-.97 0-1.85-.38T119.8-1.4q-.64-.65-1.02-1.53t-.38-1.88v-16.38q0-1 .38-1.88t1.02-1.53q.65-.64 1.53-1.02t1.85-.38h12.92q1 0 1.87.38.86.38 1.51 1.02.65.65 1.03 1.53.37.88.37 1.88m-4.78 0h-12.92v16.38h12.92zm35.79 0V0h-4.81v-21.19h-13.41V0h-4.78v-26h4.78v4.59q.05-.95.44-1.8.39-.84 1.04-1.46t1.5-.98q.86-.35 1.83-.35h8.6q1 0 1.88.38t1.52 1.02q.65.65 1.03 1.53t.38 1.88" class="wordmark-text-0" data-fill-palette-color="primary"/></svg></svg></svg></svg></svg></svg></svg></svg>